<svg width="90" height="52" viewBox="0 0 90 52" fill="none" xmlns="http://www.w3.org/2000/svg">
<rect x="1.5" y="1.5" width="87" height="49" rx="2.5" fill="#F7F7F7" stroke="#333333" stroke-width="3"/>
<path d="M43.52 39.48C41.28 39.48 39.1333 39.1867 37.08 38.6C35.0267 37.9867 33.3733 37.2 32.12 36.24L34.32 31.36C35.52 32.2133 36.9333 32.92 38.56 33.48C40.2133 34.0133 41.88 34.28 43.56 34.28C44.84 34.28 45.8667 34.16 46.64 33.92C47.44 33.6533 48.0267 33.2933 48.4 32.84C48.7733 32.3867 48.96 31.8667 48.96 31.28C48.96 30.5333 48.6667 29.9467 48.08 29.52C47.4933 29.0667 46.72 28.7067 45.76 28.44C44.8 28.1467 43.7333 27.88 42.56 27.64C41.4133 27.3733 40.2533 27.0533 39.08 26.68C37.9333 26.3067 36.88 25.8267 35.92 25.24C34.96 24.6533 34.1733 23.88 33.56 22.92C32.9733 21.96 32.68 20.7333 32.68 19.24C32.68 17.64 33.1067 16.1867 33.96 14.88C34.84 13.5467 36.1467 12.4933 37.88 11.72C39.64 10.92 41.84 10.52 44.48 10.52C46.24 10.52 47.9733 10.7333 49.68 11.16C51.3867 11.56 52.8933 12.1733 54.2 13L52.2 17.92C50.8933 17.1733 49.5867 16.6267 48.28 16.28C46.9733 15.9067 45.6933 15.72 44.44 15.72C43.1867 15.72 42.16 15.8667 41.36 16.16C40.56 16.4533 39.9867 16.84 39.64 17.32C39.2933 17.7733 39.12 18.3067 39.12 18.92C39.12 19.64 39.4133 20.2267 40 20.68C40.5867 21.1067 41.36 21.4533 42.32 21.72C43.28 21.9867 44.3333 22.2533 45.48 22.52C46.6533 22.7867 47.8133 23.0933 48.96 23.44C50.1333 23.7867 51.2 24.2533 52.16 24.84C53.12 25.4267 53.8933 26.2 54.48 27.16C55.0933 28.12 55.4 29.3333 55.4 30.8C55.4 32.3733 54.96 33.8133 54.08 35.12C53.2 36.4267 51.88 37.48 50.12 38.28C48.3867 39.08 46.1867 39.48 43.52 39.48Z" fill="#333333"/>
</svg>
