<svg width="20" height="23" viewBox="0 0 20 23" fill="none" xmlns="http://www.w3.org/2000/svg">
<path d="M20 10.125C20 9.52826 19.8084 8.95597 19.4675 8.53401C19.1265 8.11205 18.664 7.875 18.1818 7.875H12.4364L13.3091 2.73375C13.3273 2.62125 13.3364 2.4975 13.3364 2.37375C13.3364 1.9125 13.1818 1.485 12.9364 1.18125L11.9727 0L5.99091 7.4025C5.65455 7.81875 5.45455 8.38125 5.45455 9V20.25C5.45455 20.8467 5.6461 21.419 5.98708 21.841C6.32805 22.2629 6.79052 22.5 7.27273 22.5H15.4545C16.2091 22.5 16.8545 21.9375 17.1273 21.1275L19.8727 13.1962C19.9545 12.9375 20 12.6675 20 12.375V10.125ZM0 22.5H3.63636V9H0V22.5Z" fill="#333333"/>
</svg>
