<svg width="20" height="23" viewBox="0 0 20 23" fill="none" xmlns="http://www.w3.org/2000/svg">
<path d="M2.25 18.3731C1.61667 17.544 1.10833 16.6206 0.725 15.603C0.341667 14.5854 0.1 13.5113 0 12.3807H2.05C2.15 13.2098 2.33333 13.9964 2.6 14.7403C2.86667 15.4843 3.21667 16.1676 3.65 16.7902L2.25 18.3731ZM0 10.1193C0.133333 8.98869 0.383333 7.91457 0.75 6.89698C1.11667 5.8794 1.61667 4.95603 2.25 4.12688L3.65 5.7098C3.21667 6.33166 2.86667 7.01495 2.6 7.75967C2.33333 8.5044 2.15 9.29095 2.05 10.1193H0ZM8.95 22.5C7.95 22.3869 7.00433 22.1137 6.113 21.6803C5.22167 21.2469 4.40067 20.691 3.65 20.0126L5.05 18.3731C5.63333 18.8631 6.246 19.2682 6.888 19.5886C7.53 19.9089 8.21733 20.1256 8.95 20.2387V22.5ZM5.1 4.12688L3.65 2.48744C4.4 1.80905 5.221 1.25314 6.113 0.819724C7.005 0.386307 7.96733 0.113065 9 0V2.26131C8.25 2.37437 7.55 2.59108 6.9 2.91143C6.25 3.23178 5.65 3.63693 5.1 4.12688ZM7.5 16.3379V6.16206L14.5 11.25L7.5 16.3379ZM11 22.5V20.2387C13.0167 19.9183 14.6877 18.9102 16.013 17.2142C17.3383 15.5182 18.0007 13.5301 18 11.25C18 8.96985 17.3373 6.98178 16.012 5.2858C14.6867 3.58982 13.016 2.58166 11 2.26131V0C13.5667 0.320352 15.7083 1.54523 17.425 3.67462C19.1417 5.80402 20 8.32914 20 11.25C20 14.1709 19.1417 16.696 17.425 18.8254C15.7083 20.9548 13.5667 22.1796 11 22.5Z" fill="#333333"/>
</svg>
