<svg width="21" height="19" viewBox="0 0 21 19" fill="none" xmlns="http://www.w3.org/2000/svg">
<path d="M4 4C4 1.79 5.79 0 8 0C10.21 0 12 1.79 12 4C12 6.21 10.21 8 8 8C5.79 8 4 6.21 4 4ZM7.14 15.75L6.85 15L7.14 14.25C7.84 12.5 9.08 11.14 10.61 10.22C9.79 10.08 8.92 10 8 10C3.58 10 0 11.79 0 14V16H7.27C7.23 15.91 7.18 15.83 7.14 15.75ZM15 14C14.44 14 14 14.44 14 15C14 15.56 14.44 16 15 16C15.56 16 16 15.56 16 15C16 14.44 15.56 14 15 14ZM21 15C20.06 17.34 17.73 19 15 19C12.27 19 9.94 17.34 9 15C9.94 12.66 12.27 11 15 11C17.73 11 20.06 12.66 21 15ZM17.5 15C17.5 14.337 17.2366 13.7011 16.7678 13.2322C16.2989 12.7634 15.663 12.5 15 12.5C14.337 12.5 13.7011 12.7634 13.2322 13.2322C12.7634 13.7011 12.5 14.337 12.5 15C12.5 15.663 12.7634 16.2989 13.2322 16.7678C13.7011 17.2366 14.337 17.5 15 17.5C15.663 17.5 16.2989 17.2366 16.7678 16.7678C17.2366 16.2989 17.5 15.663 17.5 15Z" fill="black"/>
</svg>
